<?xml version="1.0"?><svg width="640" height="480" xmlns="http://www.w3.org/2000/svg">
 <g display="inline">
  <title>Layer 1</title>
  <circle id="svg_2" r="89.140339" cy="149" cx="150" stroke-linecap="round" stroke-linejoin="round" stroke-width="4.500982" stroke="#000000" fill="none"/>
  <rect transform="rotate(34.09497833251953 320.00000000000017,262.5) " id="svg_3" height="23" width="230" y="251" x="205" stroke-linecap="round" stroke-linejoin="round" stroke-width="4.500982" stroke="#000000" fill="#ffffff"/>
 </g>
 <g display="none">
  <title>Layer 3</title>
  <g id="svg_9">
   <title transform="translate(-87,-50) translate(157,106) translate(0,0) scale(0.25) translate(0,0) translate(749.2149658203125,526.3577880859375) scale(4.002204418182373,3.623892068862915) translate(-749.2149658203125,-526.3577880859375) ">card piece mag</title>
   <metadata transform="translate(-87,-50) translate(157,106) translate(0,0) scale(0.25) translate(0,0) translate(749.2149658203125,526.3577880859375) scale(4.002204418182373,3.623892068862915) translate(-749.2149658203125,-526.3577880859375) " id="svg_8">image/svg+xmlJigsaw puzzle piece2008-03-05Risto PekkalaRisto PekkalaRisto Pekkalaristo@pekkala.se</metadata>
   <g display="inline">
    <title transform="translate(-87,-50) translate(157,106) translate(0,0) scale(0.25) translate(0,0) translate(749.2149658203125,526.3577880859375) scale(4.002204418182373,3.623892068862915) translate(-749.2149658203125,-526.3577880859375) ">Layer 1</title>
    <g id="svg_7" display="none" stroke="#000000"/>
    <g id="svg_5" stroke="#000000">
     <path d="m442.907471,266.642883l-59.63269,24.161316l-0.025146,0c-1.359039,0.554047 -2.868286,0.608093 -4.194214,0.243073c-1.334106,-0.354553 -2.509918,-1.13501 -3.193665,-2.236298c-0.266846,-0.442535 -0.437714,-0.891815 -0.529449,-1.357971l-0.016602,-0.084595c-0.266937,-1.371521 -0.788116,-2.712616 -1.57193,-3.986237c-2.793335,-4.520142 -8.413452,-7.378235 -15.234344,-8.313843c-6.816864,-0.956146 -14.83844,0.006744 -22.459869,3.094482c-7.604523,3.080933 -13.374817,7.712372 -16.530945,12.695465c-3.156158,4.996399 -3.718994,10.340698 -0.925507,14.870911c2.055389,3.324249 5.645142,5.753113 10.118713,7.178772l-0.025085,0c4.469452,1.425659 8.063416,3.847717 10.114594,7.178711c2.793396,4.527008 2.247253,9.878052 -0.921417,14.864471c-3.151886,4.996338 -8.917999,9.621033 -16.535187,12.702118c-7.613068,3.080963 -15.634705,4.043671 -22.463898,3.101196c-6.816681,-0.942535 -12.432678,-3.793762 -15.226044,-8.327332c-0.783875,-1.266785 -1.305023,-2.604736 -1.580261,-3.979614l-0.016632,-0.084381c-0.083405,-0.462952 -0.254272,-0.922241 -0.525299,-1.358185c-0.679688,-1.101288 -1.846954,-1.874878 -3.181061,-2.236298c-1.338348,-0.361511 -2.843445,-0.31076 -4.202637,0.236389l-0.037506,0.020233l-59.628662,24.154541l0.037598,0.013397l-29.818481,-48.318939l-0.008362,-0.020172c-0.679565,-1.101501 -0.742096,-2.317627 -0.296051,-3.398743c0.446106,-1.081024 1.400909,-2.033569 2.760132,-2.580841c0.541901,-0.222839 1.104797,-0.368256 1.671814,-0.429077l0.112549,-0.020203c1.696838,-0.216309 3.34375,-0.638611 4.911377,-1.280487c5.590912,-2.263275 9.105682,-6.810455 10.26886,-12.337189c1.16745,-5.523468 -0.012512,-12.029907 -3.819,-18.1987c-3.810699,-6.16861 -9.518433,-10.840759 -15.676361,-13.394623c-6.15799,-2.560638 -12.757935,-3.009979 -18.344696,-0.746674c-4.110855,1.668976 -7.100296,4.574158 -8.85968,8.188995l-0.012527,-0.013672c-1.751083,3.621521 -4.740402,6.5336 -8.855453,8.19574c-5.582611,2.263397 -12.190918,1.820862 -18.348862,-0.746613c-6.149628,-2.56076 -11.865662,-7.232849 -15.668045,-13.394836c-3.806549,-6.16864 -4.990601,-12.675049 -3.823151,-18.198547c1.167389,-5.530212 4.682083,-10.080658 10.272995,-12.344025c1.567627,-0.635254 3.214478,-1.057556 4.911331,-1.27359l0.108398,-0.020233c0.567078,-0.060822 1.134048,-0.206207 1.676086,-0.429108c1.359146,-0.547211 2.313904,-1.496552 2.760071,-2.57431c0.446045,-1.081055 0.383575,-2.303986 -0.296005,-3.405243l-0.020874,-0.033813l-29.814346,-48.312119l-0.008301,0.026993l59.628601,-24.154541l0.037506,-0.013382c1.359207,-0.554016 2.868393,-0.601456 4.20256,-0.243301c1.334183,0.361465 2.501511,1.135056 3.181198,2.236389c0.270966,0.442642 0.441956,0.898514 0.525253,1.358139l0.016678,0.084381c0.271027,1.371567 0.796402,2.71283 1.575989,3.97966c2.793427,4.526764 8.413574,7.37796 15.230316,8.327286c6.825043,0.949265 14.850769,-0.013443 22.459717,-3.101135c7.617218,-3.0811 13.37912,-7.705795 16.531067,-12.69545c3.164459,-4.996399 3.718964,-10.347687 0.925568,-14.87114c-2.05545,-3.324234 -5.645142,-5.746323 -10.114594,-7.171967l0.020844,-0.006805c-4.469452,-1.432388 -8.059143,-3.847733 -10.114532,-7.178772c-2.793457,-4.526718 -2.234802,-9.878006 0.925568,-14.86412c3.156036,-4.989822 8.917938,-9.621323 16.526794,-12.702255c7.617218,-3.087692 15.638855,-4.037018 22.463898,-3.094482c6.825195,0.942459 12.43692,3.793701 15.230316,8.320633c0.783752,1.273636 1.304932,2.604614 1.575958,3.979507l0.012512,0.091125c0.087585,0.456085 0.262665,0.922287 0.529541,1.358185c0.679565,1.094482 1.851166,1.868073 3.185333,2.236343c1.334106,0.354675 2.839142,0.310715 4.198364,-0.243301l0.016663,-0.006577l59.636963,-24.161346l-0.041687,-0.006805l29.810059,48.319153l0.016663,0.027039c0.683777,1.094421 0.750549,2.324158 0.300201,3.405197c-0.450317,1.0811 -1.400909,2.026886 -2.76004,2.580887c-0.546082,0.216324 -1.109009,0.361481 -1.675995,0.422302l-0.104218,0.020401c-1.69278,0.216095 -3.347931,0.638397 -4.911469,1.273483c-5.5867,2.263596 -9.105591,6.817291 -10.277161,12.344269c-1.163177,5.53006 0.016754,12.029846 3.827423,18.198471c3.802277,6.168625 9.510071,10.840714 15.667999,13.394791c6.166382,2.560715 12.770477,3.009995 18.352936,0.746658c4.111053,-1.662094 7.100372,-4.574158 8.851318,-8.195724l0.008423,0.020187c1.759399,-3.614716 4.74884,-6.526779 8.859619,-8.18866c5.595123,-2.276978 12.19104,-1.820892 18.344696,0.739822c6.1539,2.560699 11.874115,7.225983 15.676392,13.394608c3.810791,6.17543 4.990662,12.675217 3.819092,18.205444c-1.16333,5.530075 -4.682129,10.073929 -10.268951,12.337296c-1.571777,0.635101 -3.214417,1.057373 -4.911407,1.273651l-0.112488,0.020172c-0.562805,0.067688 -1.129883,0.206055 -1.667664,0.422302c-1.359253,0.554077 -2.322327,1.496552 -2.760071,2.587708c-0.446167,1.07428 -0.383636,2.303955 0.291809,3.405243l0.008301,0.006805l29.818542,48.325775l0.033325,-0.033844z" id="svg_6" stroke-linejoin="round" stroke-linecap="square" stroke-width="10" fill="#ffffff"/>
    </g>
   </g>
  </g>
 </g>
</svg>